<svg xmlns="http://www.w3.org/2000/svg" viewBox="0 0 84.34 101.15"><defs><style>.cls-1{fill:none;stroke:#05796b;stroke-miterlimit:10;stroke-width:8px;}</style></defs><g id="Layer_2" data-name="Layer 2"><g id="Layer_1-2" data-name="Layer 1"><path class="cls-1" d="M48.11,71.66H49.8c23.75-.8,17.81-19.91,17.81-19.91C58,53.1,53,57.26,50.51,60.62A12.19,12.19,0,0,0,48.11,68v29.2H80.34V23.88H4V97.15H39.62V81.22c0-15.93-19.5-15.93-19.5-15.93-2.55,22.3,19.5,19.91,19.5,19.91"/><path class="cls-1" d="M39.3,59.71S44.3,39.8,20.11,39C20.11,39,14.27,58.12,39.3,59.71Z"/><path class="cls-1" d="M26,20.1a16.1,16.1,0,1,1,32.19,0"/></g></g></svg>