<svg id="Layer_1" data-name="Layer 1" xmlns="http://www.w3.org/2000/svg" viewBox="0 0 493.5 408.51"><defs><style>.cls-1{fill:#db6d5b;}.cls-2{fill:#b84f3f;}.cls-3{fill:#5d626c;}.cls-4{fill:#a7adbd;}.cls-5{fill:#fbe1ba;}</style></defs><path class="cls-1" d="M566.9,369.91H212.36a23.68,23.68,0,0,0-23.6,23.61l20.35,172.32a23.68,23.68,0,0,0,23.6,23.61H546.54a23.69,23.69,0,0,0,23.61-23.61l20.36-172.32A23.67,23.67,0,0,0,566.9,369.91Zm-297,179.63a15.44,15.44,0,0,1-15.42-15.43l-11.1-99.78a15.42,15.42,0,1,1,30.84,0l11.12,99.78A15.45,15.45,0,0,1,269.91,549.54Zm57.39,0a15.44,15.44,0,0,1-15.44-15.43l-5.55-99.78a15.43,15.43,0,0,1,30.85,0l5.56,99.78A15.44,15.44,0,0,1,327.3,549.54Zm72.78-15.43a15.42,15.42,0,1,1-30.84,0V434.33a15.42,15.42,0,1,1,30.84,0Zm57.37,0a15.42,15.42,0,1,1-30.84,0l5.54-99.78a15.43,15.43,0,0,1,30.86,0Zm57.36,0a15.42,15.42,0,1,1-30.84,0l11.11-99.78a15.42,15.42,0,1,1,30.84,0Z" transform="translate(-142.89 -180.94)"/><path class="cls-2" d="M261.9,521.16l-11.1-99.78c0-.07,0-.14,0-.21a15.39,15.39,0,0,0-7.42,13.16l11.1,99.78a15.43,15.43,0,0,0,30.86.21,15.41,15.41,0,0,1-23.45-13.16Z" transform="translate(-142.89 -180.94)"/><path class="cls-2" d="M319.26,521.16l-5.54-99.78c0-.07,0-.14,0-.21a15.39,15.39,0,0,0-7.42,13.16l5.55,99.78a15.43,15.43,0,0,0,30.85.21,15.41,15.41,0,0,1-23.45-13.16Z" transform="translate(-142.89 -180.94)"/><path class="cls-2" d="M384.65,536.58a15.42,15.42,0,0,1-15.41-15.42v13a15.42,15.42,0,1,0,30.84,0v-13A15.42,15.42,0,0,1,384.65,536.58Z" transform="translate(-142.89 -180.94)"/><path class="cls-2" d="M455.58,421.17c0,.07,0,.14,0,.21l-5.54,99.78a15.41,15.41,0,0,1-23.44,13.16,15.42,15.42,0,0,0,30.84-.21L463,434.33A15.36,15.36,0,0,0,455.58,421.17Z" transform="translate(-142.89 -180.94)"/><path class="cls-2" d="M518.52,421.17c0,.07,0,.14,0,.21l-11.11,99.78A15.41,15.41,0,0,1,484,534.32a15.42,15.42,0,0,0,30.83-.21l11.11-99.78A15.39,15.39,0,0,0,518.52,421.17Z" transform="translate(-142.89 -180.94)"/><path class="cls-2" d="M611,332.87H168.28c-14,0-25.39,13-25.39,29s11.37,29,25.39,29H611c14,0,25.41-13,25.41-29S625,332.87,611,332.87Z" transform="translate(-142.89 -180.94)"/><path class="cls-1" d="M168.28,351.84H611c8.08,0,14.88,6.63,16.91,15.61a25.19,25.19,0,0,0,.62-5.56c0-11.66-7.85-21.16-17.53-21.16H168.28c-9.65,0-17.53,9.5-17.53,21.16a25.19,25.19,0,0,0,.64,5.56C153.42,358.47,160.21,351.84,168.28,351.84Z" transform="translate(-142.89 -180.94)"/><path class="cls-1" d="M285.64,362.77a32,32,0,1,1-32-32A32,32,0,0,1,285.64,362.77Z" transform="translate(-142.89 -180.94)"/><path class="cls-2" d="M253.62,376.86a15.17,15.17,0,0,1-15.07-13.3,16.14,16.14,0,0,0-.12,1.86,15.19,15.19,0,0,0,30.38,0,14.18,14.18,0,0,0-.12-1.86A15.19,15.19,0,0,1,253.62,376.86Z" transform="translate(-142.89 -180.94)"/><path class="cls-2" d="M253.62,341.17A28.07,28.07,0,0,1,281.37,365a28.44,28.44,0,0,0,.32-4.25,28.07,28.07,0,0,0-56.14,0,28.44,28.44,0,0,0,.32,4.25A28.07,28.07,0,0,1,253.62,341.17Z" transform="translate(-142.89 -180.94)"/><path class="cls-3" d="M267.07,362.77a13.44,13.44,0,1,1-13.45-13.44A13.45,13.45,0,0,1,267.07,362.77Z" transform="translate(-142.89 -180.94)"/><path class="cls-1" d="M557.68,362.77a32,32,0,1,1-32-32A32,32,0,0,1,557.68,362.77Z" transform="translate(-142.89 -180.94)"/><path class="cls-2" d="M525.65,376.86a15.19,15.19,0,0,1-15.07-13.3,14.21,14.21,0,0,0-.1,1.86,15.18,15.18,0,1,0,30.36,0,16.16,16.16,0,0,0-.11-1.86A15.2,15.2,0,0,1,525.65,376.86Z" transform="translate(-142.89 -180.94)"/><path class="cls-2" d="M525.65,341.17A28.07,28.07,0,0,1,553.4,365a28.44,28.44,0,0,0,.32-4.25,28.07,28.07,0,0,0-56.13,0,28.45,28.45,0,0,0,.31,4.25A28.09,28.09,0,0,1,525.65,341.17Z" transform="translate(-142.89 -180.94)"/><path class="cls-3" d="M539.1,362.77a13.45,13.45,0,1,1-13.45-13.44A13.45,13.45,0,0,1,539.1,362.77Z" transform="translate(-142.89 -180.94)"/><path class="cls-4" d="M263.48,362c-2,3.5-7.06,4.41-11.22,2h0c-4.17-2.41-5.91-7.21-3.88-10.72l105.9-147.69c2-3.5,7-4.39,11.2-2h0c4.17,2.4,5.92,7.21,3.9,10.72Z" transform="translate(-142.89 -180.94)"/><path class="cls-5" d="M355.49,206.3,249.61,354c-.17.28.17,1.57,1.66,2.41s2.76.5,2.91.24L360.07,208.94c.16-.27-.19-1.56-1.67-2.42S355.66,206,355.49,206.3Z" transform="translate(-142.89 -180.94)"/><path class="cls-4" d="M514.44,362c2,3.5,7,4.41,11.21,2h0c4.16-2.41,5.91-7.21,3.89-10.72L423.63,205.59c-2-3.51-7-4.4-11.2-2h0c-4.18,2.4-5.91,7.21-3.89,10.72Z" transform="translate(-142.89 -180.94)"/><path class="cls-5" d="M422.42,206.3,528.31,354c.15.28-.18,1.57-1.66,2.41s-2.76.5-2.92.24L417.84,208.94c-.15-.27.19-1.56,1.65-2.42S422.26,206,422.42,206.3Z" transform="translate(-142.89 -180.94)"/><path class="cls-1" d="M388,203.59a22.46,22.46,0,1,1-22.46-22.46A22.46,22.46,0,0,1,388,203.59Z" transform="translate(-142.89 -180.94)"/><path class="cls-2" d="M365.49,213.48a10.66,10.66,0,0,1-10.57-9.35,9.89,9.89,0,0,0-.08,1.33,10.65,10.65,0,0,0,21.3,0,8.48,8.48,0,0,0-.08-1.33A10.66,10.66,0,0,1,365.49,213.48Z" transform="translate(-142.89 -180.94)"/><path class="cls-2" d="M365.49,186.88A19.69,19.69,0,0,1,385,203.59a19.28,19.28,0,0,0,.22-3,19.68,19.68,0,1,0-39.36,0,20.63,20.63,0,0,0,.21,3A19.7,19.7,0,0,1,365.49,186.88Z" transform="translate(-142.89 -180.94)"/><path class="cls-4" d="M374.91,203.59a9.43,9.43,0,1,1-9.42-9.43A9.43,9.43,0,0,1,374.91,203.59Z" transform="translate(-142.89 -180.94)"/><path class="cls-1" d="M434.89,203.59a22.47,22.47,0,1,1-22.46-22.46A22.45,22.45,0,0,1,434.89,203.59Z" transform="translate(-142.89 -180.94)"/><path class="cls-2" d="M412.43,213.48a10.67,10.67,0,0,1-10.58-9.35c0,.45-.07.88-.07,1.33a10.65,10.65,0,0,0,21.3,0,11.87,11.87,0,0,0-.08-1.33A10.65,10.65,0,0,1,412.43,213.48Z" transform="translate(-142.89 -180.94)"/><path class="cls-2" d="M412.43,186.88a19.7,19.7,0,0,1,19.47,16.71,20.63,20.63,0,0,0,.21-3,19.69,19.69,0,1,0-39.37,0,19.28,19.28,0,0,0,.22,3A19.7,19.7,0,0,1,412.43,186.88Z" transform="translate(-142.89 -180.94)"/><path class="cls-4" d="M421.85,203.59a9.43,9.43,0,1,1-9.42-9.43A9.43,9.43,0,0,1,421.85,203.59Z" transform="translate(-142.89 -180.94)"/></svg>